<?xml version="1.0" standalone="yes"?>

<svg version="1.1" viewBox="0.0 0.0 256.0 256.0" fill="none" stroke="none" stroke-linecap="square" stroke-miterlimit="10" xmlns="http://www.w3.org/2000/svg" xmlns:xlink="http://www.w3.org/1999/xlink"><clipPath id="p.0"><path d="m0 0l256.0 0l0 256.0l-256.0 0l0 -256.0z" clip-rule="nonzero"></path></clipPath><g clip-path="url(#p.0)"><path fill="#000000" fill-opacity="0.0" d="m0 0l256.0 0l0 256.0l-256.0 0z" fill-rule="evenodd"></path><path fill="#333745" d="m-0.002624672 -0.018372703l256.0 0l0 256.15747l-256.0 0z" fill-rule="evenodd"></path><path fill="#000000" fill-opacity="0.0" d="m11.137266 9.467073l233.8896 0l0 233.8896l-233.8896 0z" fill-rule="evenodd"></path><path fill="#000000" fill-opacity="0.0" d="m92.99205 11.136982l122.513596 0l0 200.4768l-122.513596 0z" fill-rule="evenodd"></path><path fill="#ea2e49" d="m155.2733 143.4851l-13.421875 14.75l0 37.421875l-24.609375 0l0 -127.01562l24.609375 0l0 58.1875l11.515625 -15.53125l30.875 -42.65625l30.015625 0l-42.75 56.1875l44.3125 70.82812l-29.140625 0l-31.40625 -52.171875z" fill-rule="nonzero"></path><path fill="#000000" fill-opacity="0.0" d="m48.44165 11.136982l122.513596 0l0 189.3392l-122.513596 0z" fill-rule="evenodd"></path><path fill="#daede2" d="m166.20728 88.62574l-39.171875 0l0 107.03124l-24.59375 0l0 -107.03124l-38.640625 0l0 -19.984375l102.40625 0l0 19.984375z" fill-rule="nonzero"></path><path fill="#000000" fill-opacity="0.0" d="m48.44165 256.16418l122.513596 0l0 -189.3392l-122.513596 0z" fill-rule="evenodd"></path><path fill="#77c4d3" d="m53.189625 178.67543l39.17187 0l0 -107.03125l24.59375 0l0 107.03125l38.640625 0l0 19.984375l-102.40625 0l0 -19.984375z" fill-rule="nonzero"></path><path fill="#000000" fill-opacity="0.0" d="m37.30405 -6.178478E-4l122.513596 0l0 189.33919l-122.513596 0z" fill-rule="evenodd"></path><path fill="#77c4d3" d="m155.06967 77.48814l-39.171875 0l0 107.03126l-24.59375 0l0 -107.03126l-38.64062 0l0 -19.984375l102.40625 0l0 19.984375z" fill-rule="nonzero"></path></g></svg>

